<svg xmlns="http://www.w3.org/2000/svg" viewBox="0 0 1415 274"><defs><style>.a{fill:#f6f6f6;}.b,.c,.e,.f{fill:none;}.b,.c,.d,.e,.f{stroke:#f6f6f6;}.b,.c,.d,.e{stroke-miterlimit:10;}.b{stroke-width:12px;}.c{stroke-width:10px;}.d{fill:#1cbcbb;stroke-linecap:round;}.d,.e{stroke-width:5px;}.f{stroke-linejoin:round;stroke-width:6px;}</style></defs><path class="a" d="M17,225.8c.6-4.8,1.4-10.9,2.2-18.3s1.7-15.4,2.6-24,1.8-17.7,2.7-27.1S26.3,137.9,27,129s1.5-17.2,2-24.9,1-14.3,1.2-19.7V75.5a65.8,65.8,0,0,1,.4-7.1,41.1,41.1,0,0,1,1.7-7.9,19.6,19.6,0,0,1,3.5-6.4,7.6,7.6,0,0,1,6-2.6,6.2,6.2,0,0,1,4.9,2.3,18.2,18.2,0,0,1,3.1,6.4A62.8,62.8,0,0,1,52,70c.6,3.9,1.2,8.2,1.9,12.9s1.6,9.9,3,16.5,3.2,13.7,5.3,21.6,4.4,16.2,7,25.1,5.4,17.7,8.3,26.7,5.9,17.8,9,26.6,6.1,16.9,9.2,24.6c.7-5.8,1.4-11.9,2-18.3s1.4-13,2-19.6,1.2-13.1,1.7-19.4,1.1-12.1,1.6-17.5.8-10.2,1.2-14.5.6-7.4.8-9.7l2.1-23.3c.6-6.7,1.1-12.9,1.5-18.8s.7-11.5.9-17.1.4-11.8.4-18.5c0-1.7,0-3.6.2-5.7s.4-4,.7-6,.7-3.7,1.1-5.5a24.5,24.5,0,0,1,1.5-4,21.9,21.9,0,0,1,2.7-4.2,7.3,7.3,0,0,1,2.3-2.1,4.5,4.5,0,0,1,2.2-.8,9.7,9.7,0,0,1,2.5-.2,5.1,5.1,0,0,1,4.5,2.7,18.6,18.6,0,0,1,2.5,6.8,64.4,64.4,0,0,1,1.1,9.2c.1,3.3.2,6.5.2,9.6q0,1.5-.3,5.4c-.3,2.6-.5,5.5-.8,8.7s-.6,6.6-1,9.9-.7,6.3-1.1,8.7c-2.2,17.2-4.2,33.5-5.8,48.8s-3.1,29.7-4.3,43.1-2.2,26-3,37.5-1.6,21.9-2.2,31.3c0,1.4-.1,2.7-.2,3.9s-.1,2.5-.1,3.9-.1,3.2-.1,5.1-.1,4.4-.1,7.3c0,5.6-.4,10-1.3,13.1a18.7,18.7,0,0,1-3.3,6.8,8,8,0,0,1-4.2,2.6,32.2,32.2,0,0,1-3.9.4,6.4,6.4,0,0,1-5.5-3,35.8,35.8,0,0,1-4-8.5c-1.2-3.6-2.4-7.9-3.7-12.8s-3.1-10.4-5.3-16.2q-9-24.6-18.3-52.6T44,127.9c-1,9.6-1.9,19.7-2.8,30.2s-1.6,21-2.4,31.2-1.3,20.1-1.9,29.5-1.1,17.8-1.6,25.2c0,2.9-.1,5.9-.2,9.3s-.4,6.5-.7,9.5-.5,5.5-.7,7.6-.4,3.6-.5,4.1a44.5,44.5,0,0,1-1.4,4.9,44.8,44.8,0,0,1-2.1,5.5,22.7,22.7,0,0,1-2.9,4.6,4.3,4.3,0,0,1-3.2,1.8,7.7,7.7,0,0,1-5.1-1.7,13.1,13.1,0,0,1-3.1-5.2,42.2,42.2,0,0,1-1.5-8.5c-.3-3.4-.4-7.3-.4-11.8q0-2.7.3-7.2c.2-2.9.4-6.2.8-9.8s.7-7.2,1.1-10.9S16.5,229,17,225.8Z" transform="translate(-13.5 -18.8)"/><path class="a" d="M280.4,52a26.2,26.2,0,0,1-.4,4.3,52.3,52.3,0,0,1-1.2,5.4c-.5,1.8-1.1,3.5-1.7,5.1a9.4,9.4,0,0,1-2.1,3.3,13.5,13.5,0,0,1-4,3.1,37.9,37.9,0,0,1-4.8,2.1,137.7,137.7,0,0,1-14.5,4.9c-4.7,1.3-9.2,2.3-13.4,3.1A116.3,116.3,0,0,1,226.7,85c-3.5.3-6.4.5-8.9.5H201.2a27.7,27.7,0,0,1-4.2-.3c-.2,3.6-.3,7.9-.5,12.9s-.2,10.3-.4,15.6-.3,10.4-.5,15.3-.4,9-.6,12.4a32.5,32.5,0,0,0,5.1.6l5.7.2a51.2,51.2,0,0,0,7.8-.6l6.5-1a34.5,34.5,0,0,1,4-.7l5.9-.8,6-1.1a20.6,20.6,0,0,0,4.6-1.5l3.1-2.6a21.1,21.1,0,0,1,2.7-1.8,10.2,10.2,0,0,1,2.7-1.1,15.5,15.5,0,0,1,3.1-.3,4.8,4.8,0,0,1,3.6,1.7,10.5,10.5,0,0,1,2.2,4.5,30.1,30.1,0,0,1,1.2,6.5q.3,3.6.3,7.5a20.3,20.3,0,0,1-1.3,8,18.7,18.7,0,0,1-3.3,5.1,14.4,14.4,0,0,1-4.1,3,27.4,27.4,0,0,1-3.6,1.7,18.2,18.2,0,0,1-4.9,1.3c-2.3.5-5,.9-8.1,1.4l-9.7,1.4c-3.4.4-6.7.8-9.7,1l-8.2.8-5.1.3a13.4,13.4,0,0,0-4.6.8l-4.4,2.1c-.7,5.2-1.2,10.8-1.6,16.9s-.9,12.3-1.7,18.9c-.2,2.6-.5,5.2-.8,7.9s-.6,5.3-.8,7.7-.4,4.7-.6,6.8-.3,3.7-.3,5l3.9-.2,4.6-.5,4.9-.7,4.6-.9,9.8-1.7,7.3-1.3,6.1-1.2,6-1.6,4-1,5-1,5-1.3a22,22,0,0,0,4.7-1.9,16.4,16.4,0,0,0,2.6-1.7l2.7-2a16.1,16.1,0,0,1,2.8-1.7,7.1,7.1,0,0,1,2.8-.6,4.8,4.8,0,0,1,3.3,1.5,12.8,12.8,0,0,1,2.8,4,28.5,28.5,0,0,1,1.9,6.2,40,40,0,0,1,.7,7.9,15.8,15.8,0,0,1-.7,4.1,30.1,30.1,0,0,1-2.1,5.4,27.6,27.6,0,0,1-3.2,4.9,11.1,11.1,0,0,1-4,3.1,97.1,97.1,0,0,1-14.3,4.3c-4.8,1-10,2.3-15.8,3.8l-12.4,2.9-11.5,2.8-9.4,2.5a56.7,56.7,0,0,0-5.9,1.8,28.7,28.7,0,0,0-4,1.9l-4.2,2.3c-1.4.8-2.8,1.4-4.1,2a9.7,9.7,0,0,1-3.4.8H177a9.8,9.8,0,0,1-5.1-1.4,10.4,10.4,0,0,1-3.6-4.8,37.2,37.2,0,0,1-2.2-9.4,121.3,121.3,0,0,1-.8-14.9,146.5,146.5,0,0,1,.9-15.4c.7-5.7,1.3-12.5,2.1-20.3s1.5-14.5,2.2-20.8,1.3-12.3,1.9-18.3,1.2-11.8,1.7-17.7.9-12.2,1.2-19c.1-.8.1-2.6.2-5.5s.3-6.4.4-10.4.3-8.3.5-12.8.3-8.8.4-12.8.3-7.4.4-10.4.1-4.8.1-5.6,0-1.9-.1-3.3-.2-2.5-.2-3.4a48.4,48.4,0,0,1,.7-8.1,63.9,63.9,0,0,1,2.1-9.2,16.3,16.3,0,0,1,2.5-4.9,35,35,0,0,1,3.9-4.6,20.9,20.9,0,0,1,4.2-3.4,7.2,7.2,0,0,1,3.7-1.3,10.8,10.8,0,0,1,2.8.6l3.9,1.5,3.9,1.4a7.6,7.6,0,0,0,2.7.7h5l7,.2a99.5,99.5,0,0,0,14.3-1.1,87.9,87.9,0,0,0,14.6-3.4,32.3,32.3,0,0,0,6.2-3l5.7-3.4a43.2,43.2,0,0,1,5.6-3,15.2,15.2,0,0,1,5.9-1.2,4.6,4.6,0,0,1,3.1,1.4,13.8,13.8,0,0,1,2.8,3.7,27.7,27.7,0,0,1,2,5.3A19.8,19.8,0,0,1,280.4,52Z" transform="translate(-13.5 -18.8)"/><path class="a" d="M425.4,275.8a17.1,17.1,0,0,1-1,5.7,27.8,27.8,0,0,1-2.5,5.5,21.4,21.4,0,0,1-3.4,4.2,5.1,5.1,0,0,1-3.4,1.6,5.4,5.4,0,0,1-2.6-1.3,48.8,48.8,0,0,1-4.1-3.5c-1.5-1.4-3.1-3.1-4.9-5l-5.1-5.8-4.8-5.9c-1.5-2-2.7-3.8-3.7-5.4l-3.1-4.8-4.9-7.6-5.1-8c-1.6-2.6-2.9-4.5-3.8-5.8-2.4-3.7-4.8-7.6-7.1-11.6s-4.8-8-7.1-12-4.8-7.8-7.2-11.5a118.7,118.7,0,0,0-7.5-10.3.1.1,0,0,0-.1-.1c-.1,0-.2,0-.2.1h-.4a10,10,0,0,1-3.4-.5,5.5,5.5,0,0,1-3.1-2.2,15.2,15.2,0,0,1-2.3-5.1,36.8,36.8,0,0,1-.9-9.2,27,27,0,0,1,1.1-7.7,22.9,22.9,0,0,1,2.9-6.1,13.3,13.3,0,0,1,4.1-4.1,8.7,8.7,0,0,1,4.7-1.5l1.6.2,1.9.7,1.7.6,1.2.3a7.5,7.5,0,0,0,2.7-1.3c1.3-.9,2.8-2,4.6-3.5l5.7-5,6-6c1.9-2.1,3.8-4.3,5.5-6.5s3.1-4.3,4.3-6.2,1.2-2.2,2.1-3.9a46.4,46.4,0,0,0,2.9-5.9,65.5,65.5,0,0,0,2.6-7.1,25.6,25.6,0,0,0,1.1-7.1,38.3,38.3,0,0,0-1.3-9.9,43.1,43.1,0,0,0-3.4-8.5,36,36,0,0,0-4.6-6.7,38.5,38.5,0,0,0-5.1-4.9,22.7,22.7,0,0,0-4.8-3.1,9.8,9.8,0,0,0-3.7-1.1,47,47,0,0,0-4.7.4l-5.8.9c-2,.3-4.1.8-6.2,1.3s-3.9,1-5.7,1.5a32.8,32.8,0,0,0-4.5,1.7,8.9,8.9,0,0,0-2.6,1.7q-.5,4.1-.9,7.5l-.6,7.1c-.3,2.3-.5,4.9-.7,7.5s-.5,5.7-.8,9.1c-.1,1.7-.3,3.9-.6,6.8s-.4,6.2-.7,9.8-.5,7.3-.8,11.1-.5,7.7-.7,11.4-.5,7-.7,10.1-.2,5.6-.3,7.5c-.1,5.9-.3,12.3-.5,19.4s-.3,13.7-.4,20.1-.3,11.7-.4,16.3-.1,7.4-.1,8.5,0,1.1.1,2.8.1,3.6.2,5.9.1,4.8.2,7.5.2,5.3.2,7.7.2,4.6.2,6.4.1,3.1.1,3.7c0,6.7-.8,11.3-2.4,13.9s-4.1,3.8-7.6,3.8a6.3,6.3,0,0,1-2.1-.8,10.6,10.6,0,0,1-3-3,22.8,22.8,0,0,1-2.7-6.2,36.3,36.3,0,0,1-1.2-10.3c0-2,0-3.7.1-5.1s.2-2.4.2-3.3c-.3-2.6-.4-5.4-.5-8.4l-.3-8.9c0-2.9-.1-5.7-.1-8.3v-6.6c0-.6.1-2.5.2-5.8s.2-7.4.4-12.4.4-10.7.7-16.9.5-12.4.8-18.7.5-12.2.8-18,.7-10.6,1-14.7c.2-2.6.5-5.7.9-9.4s.7-7.5,1.1-11.5l1.2-12c.4-4.1.8-7.8,1.1-11.1s.7-6,.9-8.2.3-3.6.3-4a10.7,10.7,0,0,0-.6-2.3c-.4-1.1-.8-2.5-1.3-4.1s-.9-3.2-1.3-4.8a26.8,26.8,0,0,1-.5-4.5,22.8,22.8,0,0,1,1.2-7.8,18.9,18.9,0,0,1,3.1-5.5,11.8,11.8,0,0,1,3.7-3.1,6.8,6.8,0,0,1,3.2-1.1l1.7.2,1.9.4,1.7.4,1.1.2,7.2-2.5,8.7-2.8c3-.9,6.1-1.7,9.1-2.4a46.1,46.1,0,0,1,8.8-.9,18.7,18.7,0,0,1,8.3,2.2,37.4,37.4,0,0,1,9.1,6.3,67.4,67.4,0,0,1,8.9,9.9,72.8,72.8,0,0,1,7.7,13.1,81.9,81.9,0,0,1,5.4,15.6,78.3,78.3,0,0,1,2,17.8,58.7,58.7,0,0,1-2.4,16.4,98.5,98.5,0,0,1-6.1,15.9,139.3,139.3,0,0,1-8.5,14.6,117.4,117.4,0,0,1-9.2,12.2,112.3,112.3,0,0,1-8.5,9.1,41.2,41.2,0,0,1-6.3,5l-1,.6-1.7.9-1.6.9-.9.4,2,3,4.6,6.8,6.5,9.6,7.5,11,7.6,11.2c2.6,3.6,4.9,7,7,10.2a74.9,74.9,0,0,0,5.4,7.2,73.7,73.7,0,0,0,5.2,5.8l5.2,5.4c1.8,1.7,3.7,3.8,5.6,6a17.2,17.2,0,0,1,3,4.4,19.8,19.8,0,0,1,1.5,4.5,24.2,24.2,0,0,1,.7,4.7C425.4,272.6,425.4,274.2,425.4,275.8Z" transform="translate(-13.5 -18.8)"/><path class="a" d="M573.5,132.1a112.6,112.6,0,0,1-8,41.2,152.4,152.4,0,0,1-19.4,34.8,152.6,152.6,0,0,1-11.5,14c-4.1,4.5-8.2,8.6-12.3,12.4s-8.1,7.1-11.8,9.9a113.4,113.4,0,0,1-10.2,7.1,81.3,81.3,0,0,0-7.2,5.3,83.3,83.3,0,0,0-8.9,8.5,23.7,23.7,0,0,1-4.7,3.9,23.4,23.4,0,0,1-4.6,2.5,20.1,20.1,0,0,1-3.8,1.4,9.7,9.7,0,0,1-2.4.4c-3.2,0-6-1.8-8.3-5.5s-3.8-8.5-4.5-14.6c-.6-4.5-.9-8.3-1.2-11.5s-.3-5.5-.3-7.1,0-1.6.1-2.8l.3-3.8c.1-1.3.2-2.6.4-3.9s.1-2.3.1-3.1.1-2.6.1-4.2.2-3.3.4-5,.2-3.5.4-5.2.2-3.3.3-4.7c1.4-14.5,2.6-29.2,3.7-44.1s2.4-30.3,4.1-45.9c.1-1.5.3-3.2.5-5.1s.5-3.6.7-5.5.4-3.7.5-5.4a35.8,35.8,0,0,0,.3-4.1,7.7,7.7,0,0,0-.6-3.7L464,86c-.7-1.2-1.4-2.2-1.9-3.2a11.1,11.1,0,0,1-1.3-2.7,13.2,13.2,0,0,1-.8-3,23,23,0,0,1-.2-3.9,36.5,36.5,0,0,1,.9-7.7,35.7,35.7,0,0,1,2.5-7.6,20.5,20.5,0,0,1,3.6-5.8c1.4-1.6,2.8-2.4,4.3-2.4l4.4.4,5.5,1,5,1,2.8.4a93.9,93.9,0,0,0,13.3-1,121,121,0,0,1,14.7-1,46.8,46.8,0,0,1,19.7,4.2,48,48,0,0,1,16.8,12.8c1.1,1.3,2.4,2.9,3.7,4.7a63.9,63.9,0,0,1,4.1,6.8,86.3,86.3,0,0,1,4.2,9.4,124.8,124.8,0,0,1,3.8,13.3c1.4,6.1,2.5,11.7,3.2,16.9A92.8,92.8,0,0,1,573.5,132.1Zm-19.6,0a69,69,0,0,0-2.1-18.2,48.1,48.1,0,0,0-5.4-12.7,29.7,29.7,0,0,0-7.6-8.1,35.1,35.1,0,0,0-8.7-4.3,71.1,71.1,0,0,0-10.8-2.7,67.1,67.1,0,0,0-11-.9,30.5,30.5,0,0,0-5,.4l-5.6,1-5.8,1.1a39.8,39.8,0,0,1-5.8.7l-2.7,27.8c-.9,9.2-1.7,17.8-2.5,25.7s-1.4,15-1.9,21-.9,10.5-1,13.3c-.5,6.2-.9,12.5-1.3,19.2s-.6,12.7-.6,18.2c0,2.7.1,5.1.2,7.1s.3,4,.5,5.9a72,72,0,0,0,15.7-8.2L510.7,206c3.6-2.4,6.9-4.8,10.1-7.3a107.4,107.4,0,0,0,8.5-7.4,72.1,72.1,0,0,0,6.7-7.1,53,53,0,0,0,4.6-6.5c.3-.7.9-1.9,1.7-3.8s1.7-4,2.6-6.6,2.1-5.4,3.1-8.5,2-6.2,2.9-9.4,1.5-6.3,2.1-9.2A41.7,41.7,0,0,0,553.9,132.1Z" transform="translate(-13.5 -18.8)"/><path class="b" d="M629.7,278V26.2H732.9c22.2,0,38.4.6,48.5,1.7a120.5,120.5,0,0,1,26.2,5.7c12.7,4.8,22.5,12.2,29.3,22.4s10.2,22.4,10.2,36.9c0,11.4-2.6,21.3-7.6,29.8s-12.7,15.5-22.9,20.9c13.4,4.8,23.2,12,29.6,21.6s9.6,22,9.6,37.2-3.1,27.9-9.3,38.9a62.9,62.9,0,0,1-27.1,25.4,92.8,92.8,0,0,1-27.4,8.7c-10.2,1.7-27.2,2.6-50.9,2.6Zm78.4-151.3h33.3c11.2,0,19.1-1.6,23.6-4.9s6.9-8.9,6.9-16.8-2.5-14-7.4-17.1-16.2-4.6-34-4.6H708.1Zm0,92.5h37.4c12.5,0,21.3-1.9,26.5-5.5s7.9-9.6,7.9-17.9-2.7-14.3-8-17.8-14.4-5.3-27-5.3H708.1Z" transform="translate(-13.5 -18.8)"/><path class="b" d="M1156.9,278l86.5-131L1164.6,26.2h90.9L1289.2,90l36.7-63.8h88.9L1333.3,147l84.2,131h-91.2l-38.1-68.2L1249.9,278Z" transform="translate(-13.5 -18.8)"/><path class="c" d="M915.4,26.5H1103l31.9,38v203a12,12,0,0,1-12,12H895.5a12,12,0,0,1-12-12V64.5Z" transform="translate(-13.5 -18.8)"/><line class="d" x1="990.8" y1="48.2" x2="870" y2="48.2"/><line class="d" x1="950.4" y1="39.4" x2="875.3" y2="39.4"/><line class="d" x1="1121.4" y1="48.2" x2="1086.1" y2="48.2"/><polygon class="a" points="930.4 199.2 1060.4 209.2 964.4 248.2 930.4 199.2"/><rect class="e" x="858" y="112.1" width="12" height="56"/><rect class="e" x="1121.4" y="112.1" width="12" height="56"/><rect class="f" x="886.2" y="112.7" width="95.4" height="44.86" rx="6"/><rect class="f" x="1007.8" y="112.7" width="95.4" height="44.86" rx="6"/><line class="f" x1="886.2" y1="124.1" x2="870" y2="124.1"/><line class="f" x1="981.5" y1="127" x2="1007.8" y2="127"/><line class="f" x1="1120.4" y1="124.1" x2="1104.2" y2="124.1"/><circle class="a" cx="936.4" cy="135.1" r="12.6"/><circle class="a" cx="1051.5" cy="135.1" r="12.6"/></svg>