<?xml version="1.0" encoding="utf-8"?>
<!-- Generator: Adobe Illustrator 24.3.0, SVG Export Plug-In . SVG Version: 6.00 Build 0)  -->
<svg version="1.1" xmlns="http://www.w3.org/2000/svg" xmlns:xlink="http://www.w3.org/1999/xlink" x="0px" y="0px"
	 viewBox="0 0 1435.74 279.21" style="enable-background:new 0 0 1435.74 279.21;" xml:space="preserve">
<style type="text/css">
	.st0{display:none;}
	.st1{display:inline;fill:none;}
	.st2{display:inline;}
	.st3{font-family:'SegoeScript-Bold';}
	.st4{font-size:165px;}
	.st5{letter-spacing:14;}
	.st6{display:inline;fill:none;stroke:#000000;stroke-width:12;stroke-miterlimit:10;}
	.st7{font-family:'Swiss721BT-Black';}
	.st8{font-size:350px;}
	.st9{letter-spacing:-14;}
	.st10{fill:none;stroke:#000000;stroke-width:10;stroke-miterlimit:10;}
	.st11{fill:#1CBCBB;stroke:#000000;stroke-width:5;stroke-linecap:round;stroke-miterlimit:10;}
	.st12{fill:none;stroke:#000000;stroke-width:5;stroke-miterlimit:10;}
	.st13{fill:none;stroke:#000000;stroke-width:6;stroke-linejoin:round;stroke-miterlimit:10;}
	.st14{display:inline;fill:#F6F6F6;}
	.st15{display:inline;fill:none;stroke:#F6F6F6;stroke-width:12;stroke-miterlimit:10;}
	.st16{fill:none;stroke:#F6F6F6;stroke-width:10;stroke-miterlimit:10;}
	.st17{fill:#1CBCBB;stroke:#F6F6F6;stroke-width:5;stroke-linecap:round;stroke-miterlimit:10;}
	.st18{fill:none;stroke:#F6F6F6;stroke-width:5;stroke-miterlimit:10;}
	.st19{fill:none;stroke:#F6F6F6;stroke-width:6;stroke-linejoin:round;stroke-miterlimit:10;}
	.st20{fill:#F6F6F6;}
	.st21{fill:none;}
	.st22{fill:#F2F2F2;}
	.st23{fill:#1CBCBB;stroke:#161616;stroke-width:12;stroke-miterlimit:10;}
	.st24{fill:#1CBCBB;stroke:#161616;stroke-width:10;stroke-miterlimit:10;}
	.st25{fill:#1CBCBB;stroke:#161616;stroke-width:5;stroke-linecap:round;stroke-miterlimit:10;}
	.st26{fill:#161616;}
	.st27{fill:#1CBCBB;stroke:#161616;stroke-width:5;stroke-miterlimit:10;}
	.st28{fill:#F6F6F6;stroke:#161616;stroke-width:6;stroke-linejoin:round;stroke-miterlimit:10;}
	.st29{fill:none;stroke:#161616;stroke-width:6;stroke-linejoin:round;stroke-miterlimit:10;}
	.st30{display:inline;fill:#1CBCBB;stroke:#F6F6F6;stroke-width:12;stroke-miterlimit:10;}
	.st31{fill:#1CBCBB;stroke:#F6F6F6;stroke-width:12;stroke-miterlimit:10;}
	.st32{fill:none;stroke:#F6F6F6;stroke-width:6;stroke-miterlimit:10;}
	.st33{fill:#1CBCBB;stroke:#F6F6F6;stroke-width:5;stroke-miterlimit:10;}
</style>
<g id="Camada_2" class="st0">
</g>
<g id="Camada_1">
	<g class="st0">
		<rect x="0.16" y="13.89" class="st1" width="662.74" height="249.78"/>
		<text transform="matrix(1 0 0 2.01 0.1648 263.6191)" class="st2 st3 st4 st5">NERD</text>
		<rect x="605.87" y="8.04" class="st1" width="830.04" height="255.85"/>
		<text transform="matrix(1 0 0 1 605.8684 263.8413)" class="st6 st7 st8 st9">B   X</text>
		<g id="Cabeça_1_" class="st2">
			<path id="Cabeça" class="st10" d="M915.35,12.35h187.59l31.92,38.04v202.96c0,6.63-5.37,12-12,12l-227.43-0.01
				c-6.63,0-12-5.37-12-12V50.39L915.35,12.35z"/>
			<line class="st11" x1="1004.28" y1="52.92" x2="883.43" y2="52.92"/>
			<line class="st11" x1="963.86" y1="44.07" x2="888.74" y2="44.07"/>
			<line class="st11" x1="1134.86" y1="52.92" x2="1099.57" y2="52.92"/>
		</g>
		<polygon class="st2" points="943.91,203.89 1073.91,213.89 977.91,252.89 		"/>
		<g id="Orelhas" class="st2">
			<rect x="871.43" y="116.78" class="st12" width="12" height="56"/>
			<rect x="1134.86" y="116.78" class="st12" width="12" height="56"/>
		</g>
		<g id="Óculos" class="st2">
			<path class="st13" d="M989,162.21h-83.36c-3.31,0-6-2.69-6-6v-32.86c0-3.31,2.69-6,6-6H989c3.31,0,6,2.69,6,6v32.86
				C995,159.52,992.31,162.21,989,162.21z"/>
			<path class="st13" d="M1110.59,162.21h-83.36c-3.31,0-6-2.69-6-6v-32.86c0-3.31,2.69-6,6-6h83.36c3.31,0,6,2.69,6,6v32.86
				C1116.59,159.52,1113.91,162.21,1110.59,162.21z"/>
			<line class="st13" x1="899.64" y1="128.78" x2="883.43" y2="128.78"/>
			<line class="st13" x1="995" y1="131.64" x2="1021.23" y2="131.64"/>
			<line class="st13" x1="1133.83" y1="128.78" x2="1117.62" y2="128.78"/>
			<circle cx="949.86" cy="139.78" r="12.57"/>
			<circle cx="1064.93" cy="139.78" r="12.57"/>
		</g>
	</g>
	<g class="st0">
		<rect x="0.21" y="14" class="st1" width="662.74" height="249.78"/>
		<text transform="matrix(1 0 0 2.01 0.2142 263.7322)" class="st14 st3 st4 st5">NERD</text>
		<rect x="605.92" y="8.15" class="st1" width="830.04" height="255.85"/>
		<text transform="matrix(1 0 0 1 605.9178 263.9544)" class="st15 st7 st8 st9">B   X</text>
		<g id="Cabeça_2_" class="st2">
			<path id="Cabeça_5_" class="st16" d="M915.4,12.47h187.59l31.92,38.04v202.96c0,6.63-5.37,12-12,12l-227.43-0.01
				c-6.63,0-12-5.37-12-12V50.51L915.4,12.47z"/>
			<line class="st17" x1="1004.33" y1="53.04" x2="883.48" y2="53.04"/>
			<line class="st17" x1="963.9" y1="44.18" x2="888.78" y2="44.18"/>
			<line class="st17" x1="1134.9" y1="53.04" x2="1099.62" y2="53.04"/>
		</g>
		<polygon class="st14" points="943.95,204 1073.95,214 977.95,253 		"/>
		<g id="Orelhas_1_" class="st2">
			<rect x="871.48" y="116.89" class="st18" width="12" height="56"/>
			<rect x="1134.9" y="116.89" class="st18" width="12" height="56"/>
		</g>
		<g id="Óculos_1_" class="st2">
			<path class="st19" d="M989.05,162.32h-83.36c-3.31,0-6-2.69-6-6v-32.86c0-3.31,2.69-6,6-6h83.36c3.31,0,6,2.69,6,6v32.86
				C995.05,159.64,992.36,162.32,989.05,162.32z"/>
			<path class="st19" d="M1110.64,162.32h-83.36c-3.31,0-6-2.69-6-6v-32.86c0-3.31,2.69-6,6-6h83.36c3.31,0,6,2.69,6,6v32.86
				C1116.64,159.64,1113.96,162.32,1110.64,162.32z"/>
			<line class="st19" x1="899.69" y1="128.89" x2="883.48" y2="128.89"/>
			<line class="st19" x1="995.05" y1="131.75" x2="1021.28" y2="131.75"/>
			<line class="st19" x1="1133.88" y1="128.89" x2="1117.67" y2="128.89"/>
			<circle class="st20" cx="949.9" cy="139.89" r="12.57"/>
			<circle class="st20" cx="1064.98" cy="139.89" r="12.57"/>
		</g>
	</g>
	<g>
		<rect x="0.23" y="13.92" class="st21" width="662.74" height="249.78"/>
		<text transform="matrix(1 0 0 2.01 0.2301 263.6449)" class="st22 st3 st4 st5">NERD</text>
		<g>
			<rect x="605.93" y="8.07" class="st21" width="830.04" height="255.85"/>
			<text transform="matrix(1 0 0 1 605.9337 263.8671)" class="st23 st7 st8 st9">B   X</text>
		</g>
		<g id="Cabeça_7_">
			<path id="Cabeça_8_" class="st24" d="M915.41,12.38H1103l31.92,38.04v202.96c0,6.63-5.37,12-12,12l-227.43-0.01
				c-6.63,0-12-5.37-12-12V50.42L915.41,12.38z"/>
			<line class="st25" x1="1004.35" y1="52.95" x2="883.49" y2="52.95"/>
			<line class="st25" x1="963.92" y1="44.09" x2="888.8" y2="44.09"/>
			<line class="st25" x1="1134.92" y1="52.95" x2="1099.63" y2="52.95"/>
		</g>
		<polygon class="st26" points="943.97,203.92 1073.97,213.92 977.97,252.92 		"/>
		<g id="Orelhas_3_">
			<rect x="871.49" y="116.81" class="st27" width="12" height="51.08"/>
			<rect x="1134.91" y="116.81" class="st27" width="12" height="51.08"/>
		</g>
		<g id="Óculos_3_">
			<path class="st28" d="M989.06,162.24h-83.36c-3.31,0-6-2.69-6-6v-32.86c0-3.31,2.69-6,6-6h83.36c3.31,0,6,2.69,6,6v32.86
				C995.06,159.55,992.38,162.24,989.06,162.24z"/>
			<path class="st28" d="M1110.66,162.24h-83.36c-3.31,0-6-2.69-6-6v-32.86c0-3.31,2.69-6,6-6h83.36c3.31,0,6,2.69,6,6v32.86
				C1116.66,159.55,1113.97,162.24,1110.66,162.24z"/>
			<line class="st29" x1="899.71" y1="128.81" x2="883.49" y2="128.81"/>
			<line class="st29" x1="995.06" y1="131.66" x2="1021.3" y2="131.66"/>
			<line class="st29" x1="1133.9" y1="128.81" x2="1117.68" y2="128.81"/>
			<circle class="st26" cx="949.92" cy="139.81" r="12.57"/>
			<circle class="st26" cx="1064.99" cy="139.81" r="12.57"/>
		</g>
	</g>
	<g class="st0">
		<rect x="0.21" y="14.5" class="st1" width="662.74" height="249.78"/>
		<text transform="matrix(1 0 0 2.01 0.2141 264.232)" class="st14 st3 st4 st5">NERD</text>
		<rect x="605.92" y="8.65" class="st1" width="830.04" height="255.85"/>
		<text transform="matrix(1 0 0 1 605.9177 264.4542)" class="st30 st7 st8 st9">B   X</text>
		<g id="Cabeça_6_" class="st2">
			<g>
				<path id="Cabeça_18_" class="st31" d="M915.4,12.97h187.59l31.92,38.04v202.96c0,6.63-5.37,12-12,12l-227.43-0.01
					c-6.63,0-12-5.37-12-12V51.01L915.4,12.97z"/>
				<line class="st32" x1="1004.33" y1="53.54" x2="883.48" y2="53.54"/>
				<line class="st18" x1="963.9" y1="44.68" x2="888.78" y2="44.68"/>
				<line class="st32" x1="1134.9" y1="53.54" x2="1099.62" y2="53.54"/>
			</g>
		</g>
		<polygon class="st14" points="943.95,204.5 1073.95,214.5 977.95,253.5 		"/>
		<g id="Orelhas_2_" class="st2">
			<rect x="871.48" y="117.39" class="st33" width="12" height="56"/>
			<rect x="1134.9" y="117.39" class="st33" width="12" height="56"/>
		</g>
		<g id="Óculos_2_" class="st2">
			<path class="st19" d="M989.05,162.82h-83.36c-3.31,0-6-2.69-6-6v-32.86c0-3.31,2.69-6,6-6h83.36c3.31,0,6,2.69,6,6v32.86
				C995.05,160.14,992.36,162.82,989.05,162.82z"/>
			<path class="st19" d="M1110.64,162.82h-83.36c-3.31,0-6-2.69-6-6v-32.86c0-3.31,2.69-6,6-6h83.36c3.31,0,6,2.69,6,6v32.86
				C1116.64,160.14,1113.95,162.82,1110.64,162.82z"/>
			<line class="st19" x1="899.69" y1="129.39" x2="883.48" y2="129.39"/>
			<line class="st19" x1="995.05" y1="132.25" x2="1021.28" y2="132.25"/>
			<line class="st19" x1="1133.88" y1="129.39" x2="1117.67" y2="129.39"/>
			<circle class="st20" cx="949.9" cy="140.39" r="12.57"/>
			<circle class="st20" cx="1064.98" cy="140.39" r="12.57"/>
		</g>
	</g>
</g>
</svg>
