<svg xmlns="http://www.w3.org/2000/svg" viewBox="0 0 1753.9 310"><defs><style>.a,.n{fill:#f6f6f6;}.b,.f,.j,.k,.m{fill:#1cbcbb;}.b,.c,.d,.f,.g,.h{stroke:#333;}.b,.c,.d,.f,.j,.k,.m{stroke-miterlimit:10;}.b{stroke-width:12px;}.c,.d,.h,.o{fill:none;}.c,.g,.h,.n,.o{stroke-width:6px;}.d,.f,.k,.m{stroke-width:5px;}.e{fill:#333;}.g{fill:#f2f2f2;}.g,.h,.n,.o{stroke-linejoin:round;}.i{fill:#5c22b3;opacity:0.68;}.j,.k{stroke:#161616;}.j{stroke-width:7px;}.k{stroke-linecap:round;}.l{fill:#161616;}.m,.n,.o{stroke:#000;}</style></defs><path class="a" d="M17,231.2c.6-4.7,1.4-10.8,2.2-18.2s1.7-15.4,2.6-24,1.8-17.7,2.7-27.1,1.8-18.5,2.5-27.4,1.5-17.2,2-24.9,1-14.3,1.2-19.7V81a65.8,65.8,0,0,1,.4-7.1A41.1,41.1,0,0,1,32.3,66a19.6,19.6,0,0,1,3.5-6.4,7.6,7.6,0,0,1,6-2.6,6.2,6.2,0,0,1,4.9,2.3,18.2,18.2,0,0,1,3.1,6.4A62.8,62.8,0,0,1,52,75.5c.6,3.9,1.2,8.2,1.9,12.9s1.6,9.9,3,16.5,3.2,13.7,5.3,21.6,4.4,16.2,7,25.1,5.4,17.7,8.3,26.7,5.9,17.8,9,26.6,6.1,16.9,9.2,24.6c.7-5.8,1.4-11.9,2-18.3s1.4-13,2-19.6,1.2-13.1,1.7-19.4,1.1-12.1,1.6-17.5.8-10.2,1.2-14.5.6-7.4.8-9.7l2.1-23.3c.6-6.7,1.1-13,1.5-18.8s.7-11.5.9-17.1.4-11.8.4-18.5c0-1.7,0-3.6.2-5.7s.4-4,.7-6,.7-3.7,1.1-5.5a24.5,24.5,0,0,1,1.5-4,21.9,21.9,0,0,1,2.7-4.2,7.3,7.3,0,0,1,2.3-2.1,4.5,4.5,0,0,1,2.2-.8,9.7,9.7,0,0,1,2.5-.2,5.1,5.1,0,0,1,4.5,2.7,18.6,18.6,0,0,1,2.5,6.8,64.4,64.4,0,0,1,1.1,9.2c.1,3.3.2,6.5.2,9.6q0,1.5-.3,5.4c-.3,2.6-.5,5.5-.8,8.7s-.6,6.6-1,9.9-.7,6.3-1.1,8.7c-2.2,17.2-4.2,33.5-5.8,48.8s-3.1,29.7-4.3,43.1-2.2,26-3,37.5-1.6,21.9-2.2,31.3c0,1.4-.1,2.7-.2,3.9s-.1,2.5-.1,3.9-.1,3.2-.1,5.1-.1,4.4-.1,7.3c0,5.6-.4,10-1.3,13.1a18.7,18.7,0,0,1-3.3,6.8,8,8,0,0,1-4.2,2.6,32.2,32.2,0,0,1-3.9.4,6.4,6.4,0,0,1-5.5-3,35.8,35.8,0,0,1-4-8.5c-1.2-3.6-2.4-7.9-3.7-12.8s-3.1-10.4-5.3-16.2Q72.2,224,62.9,196T44,133.4c-1,9.6-1.9,19.7-2.8,30.2s-1.6,21-2.4,31.2-1.3,20.1-1.9,29.5-1.1,17.8-1.6,25.2c0,2.9-.1,5.9-.2,9.3s-.4,6.5-.7,9.5-.5,5.5-.7,7.6-.4,3.6-.5,4.1a44.5,44.5,0,0,1-1.4,4.9,44.8,44.8,0,0,1-2.1,5.5,22.7,22.7,0,0,1-2.9,4.6,4.3,4.3,0,0,1-3.2,1.8,7.7,7.7,0,0,1-5.1-1.7,13.1,13.1,0,0,1-3.1-5.2,42.2,42.2,0,0,1-1.5-8.5c-.3-3.4-.4-7.3-.4-11.8q0-2.7.3-7.2c.2-2.9.4-6.2.8-9.8s.7-7.2,1.1-10.9S16.5,234.5,17,231.2Z" transform="translate(-13.5 -0.4)"/><path class="a" d="M280.4,57.5a26.2,26.2,0,0,1-.4,4.3,52.3,52.3,0,0,1-1.2,5.4c-.5,1.8-1.1,3.5-1.7,5.1a9.4,9.4,0,0,1-2.1,3.3,13.5,13.5,0,0,1-4,3.1,37.9,37.9,0,0,1-4.8,2.1,137.7,137.7,0,0,1-14.5,4.9c-4.7,1.3-9.2,2.3-13.4,3.1a116.3,116.3,0,0,1-11.6,1.7c-3.5.3-6.4.5-8.9.5H201.2a27.7,27.7,0,0,1-4.2-.3c-.2,3.5-.3,7.9-.5,12.9s-.2,10.3-.4,15.6-.3,10.4-.5,15.3-.4,9-.6,12.4a32.5,32.5,0,0,0,5.1.6l5.7.2a51.2,51.2,0,0,0,7.8-.6l6.5-1a34.5,34.5,0,0,1,4-.7l5.9-.8,6-1.1a20.6,20.6,0,0,0,4.6-1.5l3.1-2.6a21.1,21.1,0,0,1,2.7-1.8,10.2,10.2,0,0,1,2.7-1.1,15.5,15.5,0,0,1,3.1-.3,4.8,4.8,0,0,1,3.6,1.7,10.5,10.5,0,0,1,2.2,4.5,30.1,30.1,0,0,1,1.2,6.5q.3,3.6.3,7.5a20.3,20.3,0,0,1-1.3,8,18.7,18.7,0,0,1-3.3,5.1,14.4,14.4,0,0,1-4.1,3,27.4,27.4,0,0,1-3.6,1.7,18.2,18.2,0,0,1-4.9,1.3c-2.3.5-5,.9-8.1,1.4l-9.7,1.4c-3.4.4-6.7.8-9.7,1l-8.2.8-5.1.3a13.4,13.4,0,0,0-4.6.8l-4.4,2.1c-.7,5.2-1.2,10.8-1.6,16.9s-.9,12.3-1.7,18.9c-.2,2.6-.5,5.2-.8,7.9s-.6,5.3-.8,7.7-.4,4.7-.6,6.8-.3,3.7-.3,5l3.9-.2,4.6-.5,4.9-.7,4.6-.9,9.8-1.7,7.3-1.3,6.1-1.2,6-1.6,4-1,5-1,5-1.3a22,22,0,0,0,4.7-1.9,16.4,16.4,0,0,0,2.6-1.7l2.7-2a16.1,16.1,0,0,1,2.8-1.7,7.1,7.1,0,0,1,2.8-.6,4.8,4.8,0,0,1,3.3,1.5,12.8,12.8,0,0,1,2.8,4,28.5,28.5,0,0,1,1.9,6.2,40,40,0,0,1,.7,7.9,15.8,15.8,0,0,1-.7,4.1,30.1,30.1,0,0,1-2.1,5.4,27.6,27.6,0,0,1-3.2,4.9,11.1,11.1,0,0,1-4,3.1,97.1,97.1,0,0,1-14.3,4.3c-4.8,1-10,2.3-15.8,3.8l-12.4,2.9-11.5,2.8-9.4,2.5a56.7,56.7,0,0,0-5.9,1.8,28.7,28.7,0,0,0-4,1.9l-4.2,2.3c-1.4.8-2.8,1.4-4.1,2a9.7,9.7,0,0,1-3.4.8H177a9.8,9.8,0,0,1-5.1-1.4,10.4,10.4,0,0,1-3.6-4.8,37.2,37.2,0,0,1-2.2-9.4,121.3,121.3,0,0,1-.8-14.9,146.5,146.5,0,0,1,.9-15.4c.7-5.7,1.3-12.5,2.1-20.3s1.5-14.5,2.2-20.8,1.3-12.3,1.9-18.3,1.2-11.8,1.7-17.7.9-12.2,1.2-19c.1-.8.1-2.6.2-5.5s.3-6.4.4-10.4.3-8.3.5-12.8.3-8.8.4-12.8.3-7.4.4-10.4.1-4.8.1-5.6,0-1.9-.1-3.3-.2-2.5-.2-3.4a48.4,48.4,0,0,1,.7-8.1,63.9,63.9,0,0,1,2.1-9.2,16.3,16.3,0,0,1,2.5-4.9,35,35,0,0,1,3.9-4.6,20.9,20.9,0,0,1,4.2-3.4,7.2,7.2,0,0,1,3.7-1.3,10.8,10.8,0,0,1,2.8.6l3.9,1.5,3.9,1.4a7.6,7.6,0,0,0,2.7.7h5l7,.2a99.5,99.5,0,0,0,14.3-1.1,87.9,87.9,0,0,0,14.6-3.4,32.3,32.3,0,0,0,6.2-3l5.7-3.4a43.2,43.2,0,0,1,5.6-3,15.2,15.2,0,0,1,5.9-1.2,4.6,4.6,0,0,1,3.1,1.4,13.8,13.8,0,0,1,2.8,3.7,27.7,27.7,0,0,1,2,5.3A19.8,19.8,0,0,1,280.4,57.5Z" transform="translate(-13.5 -0.4)"/><path class="a" d="M425.4,281.3c-.4,8.8-8.1,24.1-17,12.2-17.6-16.9-29.3-39.5-42.5-59.9-6.9-11.4-13.5-23.6-21.8-33.8-13.7.5-12.1-22.4-6.4-30.8,14.7-17,6.4,13.9,39.7-26.1,15.1-17.9,18.8-44.6-1.4-60.2-7.7-8.3-29.8-1.6-38,3.3-5.3,47.1-7.5,96.4-8.1,143.7-1.6,18.2,4.2,40.3-1.5,56.4-5.4,7.7-13.9,2.3-15.4-6.2-2.2-11-.7-24.5-1.7-36-.2-32.6,1.8-68.6,3.8-101.4.9-18.5,5.4-40.2,4.9-58.5-4.5-10.1-5.1-27.9,8.1-30.9,7.7,2.5,14.5-2.1,22.3-4.1,36.1-15.5,59.7,30.8,59.3,61.6-1.1,28.3-21.9,62.3-46.2,76,12.7,18.8,26.9,40.5,40.6,59C412.9,256.5,427.5,265.2,425.4,281.3Z" transform="translate(-13.5 -0.4)"/><path class="a" d="M573.5,137.6a112.6,112.6,0,0,1-8,41.2,152.4,152.4,0,0,1-19.4,34.8,152.6,152.6,0,0,1-11.5,14c-4.1,4.5-8.2,8.6-12.3,12.4s-8.1,7.1-11.8,9.9a113.4,113.4,0,0,1-10.2,7.1,81.3,81.3,0,0,0-7.2,5.3,83.3,83.3,0,0,0-8.9,8.5,23.7,23.7,0,0,1-4.7,3.9,23.4,23.4,0,0,1-4.6,2.5,20.1,20.1,0,0,1-3.8,1.4,9.7,9.7,0,0,1-2.4.4c-3.2,0-6-1.8-8.3-5.5s-3.8-8.5-4.5-14.6c-.6-4.5-.9-8.3-1.2-11.5s-.3-5.5-.3-7.1,0-1.6.1-2.8l.3-3.8c.1-1.3.3-2.6.4-3.9s.1-2.3.1-3.1.1-2.6.1-4.2.2-3.3.4-5,.2-3.5.4-5.2.2-3.3.3-4.7c1.4-14.5,2.6-29.2,3.7-44.1s2.4-30.3,4.1-45.9c.1-1.5.3-3.2.5-5.1s.5-3.6.7-5.5.4-3.7.5-5.4a35.8,35.8,0,0,0,.3-4.1,7.7,7.7,0,0,0-.6-3.7L464,91.5c-.7-1.2-1.4-2.2-1.9-3.2a11.1,11.1,0,0,1-1.3-2.7,13.2,13.2,0,0,1-.8-3,23,23,0,0,1-.2-3.9,36.5,36.5,0,0,1,.9-7.7,35.7,35.7,0,0,1,2.5-7.6,20.5,20.5,0,0,1,3.6-5.8c1.4-1.6,2.8-2.4,4.3-2.4l4.4.4,5.5,1,5,1,2.8.4a93.9,93.9,0,0,0,13.3-1,121,121,0,0,1,14.7-1,46.8,46.8,0,0,1,19.7,4.2A48,48,0,0,1,553.3,73c1.1,1.3,2.4,2.9,3.7,4.7a63.9,63.9,0,0,1,4.1,6.8,86.3,86.3,0,0,1,4.2,9.4,124.8,124.8,0,0,1,3.8,13.3c1.4,6.1,2.5,11.7,3.2,16.9A92.8,92.8,0,0,1,573.5,137.6Zm-19.6,0a69,69,0,0,0-2.1-18.2,48.1,48.1,0,0,0-5.4-12.7,29.7,29.7,0,0,0-7.6-8.1,39.6,39.6,0,0,0-8.7-4.4,84.7,84.7,0,0,0-10.8-2.6,67.1,67.1,0,0,0-11-.9,30.5,30.5,0,0,0-5,.4l-5.6,1-5.8,1.1a39.8,39.8,0,0,1-5.8.7l-2.7,27.8c-.9,9.2-1.7,17.8-2.5,25.7s-1.4,15-1.9,21-.9,10.5-1,13.3c-.5,6.2-.9,12.5-1.3,19.2s-.6,12.7-.6,18.2c0,2.7.1,5.1.2,7.1s.3,4,.5,5.9a72,72,0,0,0,15.7-8.2l18.2-12.4c3.6-2.4,6.9-4.8,10.1-7.3a107.4,107.4,0,0,0,8.5-7.4,72.1,72.1,0,0,0,6.7-7.1,53,53,0,0,0,4.6-6.5c.3-.7.9-1.9,1.7-3.8s1.7-4,2.6-6.6,2.1-5.4,3.1-8.5,2-6.2,2.9-9.4,1.5-6.3,2.1-9.2A41.7,41.7,0,0,0,553.9,137.6Z" transform="translate(-13.5 -0.4)"/><path class="b" d="M629.7,283.5V31.7H732.9c44.8,1.6,78.1-3.7,104,29.8,18.2,27.3,12.6,72.6-20.3,87.6,41.6,11.8,47.9,64.6,29.9,97.7-24.8,37.7-57.8,35.7-105.4,36.7Zm78.4-151.3c20.1-2.3,65.3,9.5,63.8-21.7,1.4-29.7-40.1-19.8-63.8-21.7Zm0,92.5c22.1-2.6,72.8,10.5,71.8-23.4.9-33.3-49.8-20.7-71.8-23.1Z" transform="translate(-13.5 -0.4)"/><path class="b" d="M1161.9,283.5l86.5-131L1169.6,31.7h90.9l33.7,63.8,36.7-63.8h88.9l-81.5,120.8,84.2,131h-91.2l-38.1-68.2-38.3,68.2Z" transform="translate(-13.5 -0.4)"/><path class="b" d="M914.4,32H1102l31.9,38V273a12,12,0,0,1-12,12H894.5a12,12,0,0,1-12-12V70Z" transform="translate(-13.5 -0.4)"/><line class="c" x1="989.8" y1="72.1" x2="869" y2="72.1"/><line class="d" x1="949.4" y1="63.3" x2="874.3" y2="63.3"/><line class="c" x1="1120.4" y1="72.1" x2="1085.1" y2="72.1"/><polygon class="e" points="929.4 223.1 1059.4 233.1 963.4 272.1 929.4 223.1"/><rect class="f" x="857" y="136" width="12" height="56"/><rect class="f" x="1120.4" y="136" width="12" height="56"/><rect class="g" x="885.2" y="136.6" width="95.4" height="44.86" rx="6"/><rect class="g" x="1006.8" y="136.6" width="95.4" height="44.86" rx="6"/><line class="h" x1="885.2" y1="148" x2="869" y2="148"/><line class="h" x1="980.5" y1="150.9" x2="1006.8" y2="150.9"/><line class="h" x1="1119.4" y1="148" x2="1103.2" y2="148"/><circle class="e" cx="935.4" cy="159" r="12.6"/><circle class="e" cx="1050.5" cy="159" r="12.6"/><rect class="i" x="1443.9" width="310" height="310"/><path class="j" d="M1542.5,66.6h141.1l24,28.6V247.9a9,9,0,0,1-9,9H1527.5a9,9,0,0,1-9-9V95.2Z" transform="translate(-13.5 -0.4)"/><line class="k" x1="1595.9" y1="96.7" x2="1505" y2="96.7"/><line class="k" x1="1565.5" y1="90.1" x2="1509" y2="90.1"/><line class="k" x1="1694.1" y1="96.7" x2="1667.5" y2="96.7"/><polygon class="l" points="1550.5 210.3 1648.2 217.8 1576 247.1 1550.5 210.3"/><rect class="m" x="1495.9" y="144.8" width="9" height="38.42"/><rect class="m" x="1694.1" y="144.8" width="9" height="38.42"/><rect class="n" x="1517.2" y="145.2" width="71.7" height="33.74" rx="6"/><rect class="n" x="1608.6" y="145.2" width="71.7" height="33.74" rx="6"/><line class="o" x1="1517.2" y1="153.8" x2="1505" y2="153.8"/><line class="o" x1="1588.9" y1="155.9" x2="1608.6" y2="155.9"/><line class="o" x1="1693.3" y1="153.8" x2="1681.1" y2="153.8"/><circle cx="1554.9" cy="162.1" r="9.5"/><circle cx="1641.5" cy="162.1" r="9.5"/></svg>