<svg id="Camada_1" data-name="Camada 1" xmlns="http://www.w3.org/2000/svg" viewBox="0 0 1435 360"><defs><style>.cls-1{font-size:165px;fill:#f2f2f2;font-family:SegoeScript-Bold, Segoe Script;font-weight:700;letter-spacing:0.09em;}.cls-2{font-size:350px;stroke-width:12px;font-family:Swiss721BT-Black, Swis721 Blk BT;font-weight:800;letter-spacing:-0.04em;}.cls-2,.cls-3,.cls-4,.cls-6{fill:#1cbcbb;stroke-miterlimit:10;}.cls-2,.cls-3,.cls-4,.cls-6,.cls-7,.cls-8{stroke:#161616;}.cls-3{stroke-width:10px;}.cls-4{stroke-linecap:round;}.cls-4,.cls-6{stroke-width:5px;}.cls-5{fill:#161616;}.cls-7{fill:#f6f6f6;}.cls-7,.cls-8{stroke-linejoin:round;stroke-width:6px;}.cls-8{fill:none;}</style></defs><text class="cls-1" transform="translate(0 306.6) scale(1 2.01)">NERD</text><text class="cls-2" transform="translate(605.7 306.82)"><tspan xml:space="preserve">B   X</tspan></text><g id="Cabeça"><path id="Cabeça-2" data-name="Cabeça" class="cls-3" d="M915.41,12.38H1103l31.92,38v203a12,12,0,0,1-12,12H895.49a12,12,0,0,1-12-12V50.42Z" transform="translate(-0.23 42.96)"/><line class="cls-4" x1="1004.12" y1="95.91" x2="883.26" y2="95.91"/><line class="cls-4" x1="963.69" y1="87.05" x2="888.57" y2="87.05"/><line class="cls-4" x1="1134.69" y1="95.91" x2="1099.4" y2="95.91"/></g><polygon class="cls-5" points="943.74 246.87 1073.74 256.87 977.74 295.87 943.74 246.87"/><g id="Orelhas"><rect class="cls-6" x="871.26" y="159.76" width="12" height="51.08"/><rect class="cls-6" x="1134.68" y="159.76" width="12" height="51.08"/></g><g id="Óculos"><rect class="cls-7" x="899.48" y="160.34" width="95.36" height="44.86" rx="6"/><rect class="cls-7" x="1021.07" y="160.34" width="95.36" height="44.86" rx="6"/><line class="cls-8" x1="899.48" y1="171.76" x2="883.26" y2="171.76"/><line class="cls-8" x1="994.83" y1="174.62" x2="1021.07" y2="174.62"/><line class="cls-8" x1="1133.67" y1="171.76" x2="1117.45" y2="171.76"/><circle class="cls-5" cx="949.69" cy="182.76" r="12.57"/><circle class="cls-5" cx="1064.76" cy="182.76" r="12.57"/></g></svg>